<?xml version="1.0" encoding="UTF-8" standalone="no"?>
<!-- Created with Inkscape (http://www.inkscape.org/) -->

<svg
   width="300"
   height="190"
   viewBox="0 0 79.375002 50.270832"
   version="1.1"
   id="svg1"
   xml:space="preserve"
   inkscape:version="1.4.2 (1:1.4.2+202505120737+ebf0e940d0)"
   sodipodi:docname="logo.final.v2.svg"
   inkscape:export-filename="logo.png"
   inkscape:export-xdpi="192"
   inkscape:export-ydpi="192"
   xmlns:inkscape="http://www.inkscape.org/namespaces/inkscape"
   xmlns:sodipodi="http://sodipodi.sourceforge.net/DTD/sodipodi-0.dtd"
   xmlns="http://www.w3.org/2000/svg"
   xmlns:svg="http://www.w3.org/2000/svg"><sodipodi:namedview
     id="namedview1"
     pagecolor="#ffffff"
     bordercolor="#000000"
     borderopacity="0.25"
     inkscape:showpageshadow="2"
     inkscape:pageopacity="0.0"
     inkscape:pagecheckerboard="0"
     inkscape:deskcolor="#d1d1d1"
     inkscape:document-units="px"
     inkscape:zoom="1.0130257"
     inkscape:cx="-85.387765"
     inkscape:cy="175.71124"
     inkscape:window-width="1920"
     inkscape:window-height="1043"
     inkscape:window-x="0"
     inkscape:window-y="0"
     inkscape:window-maximized="1"
     inkscape:current-layer="layer1"
     showguides="false" /><defs
     id="defs1"><inkscape:path-effect
       effect="skeletal"
       id="path-effect3"
       is_visible="true"
       lpeversion="1"
       pattern="m 0.1322914,3.1088539 c 1.984375,-3.96875047 3.3072901,-3.96874947 5.2916661,3e-7 1.9843761,3.9687497 3.3072919,3.9687497 5.2916665,-3e-7"
       copytype="repeated_stretched"
       prop_scale="1"
       scale_y_rel="false"
       spacing="0"
       normal_offset="0"
       tang_offset="0"
       prop_units="false"
       vertical_pattern="false"
       hide_knot="false"
       fuse_tolerance="0" /><inkscape:path-effect
       effect="skeletal"
       id="path-effect18"
       is_visible="true"
       lpeversion="1"
       pattern="m 0.1322914,3.1088539 c 1.984375,-3.96875047 3.3072901,-3.96874947 5.2916661,3e-7 1.9843761,3.9687497 3.3072919,3.9687497 5.2916665,-3e-7"
       copytype="repeated_stretched"
       prop_scale="1"
       scale_y_rel="false"
       spacing="0"
       normal_offset="0"
       tang_offset="0"
       prop_units="false"
       vertical_pattern="false"
       hide_knot="false"
       fuse_tolerance="0" /><inkscape:path-effect
       effect="skeletal"
       id="path-effect17"
       is_visible="true"
       lpeversion="1"
       pattern="M 0,0 H 1"
       copytype="single_stretched"
       prop_scale="1"
       scale_y_rel="false"
       spacing="0"
       normal_offset="0"
       tang_offset="0"
       prop_units="false"
       vertical_pattern="false"
       hide_knot="false"
       fuse_tolerance="0" /><marker
       style="overflow:visible"
       id="DartArrow"
       refX="0"
       refY="0"
       orient="auto-start-reverse"
       inkscape:stockid="Dart arrow"
       markerWidth="0.69999999"
       markerHeight="0.69999999"
       viewBox="0 0 1 1"
       inkscape:isstock="true"
       inkscape:collect="always"
       preserveAspectRatio="xMidYMid"><path
         style="fill:context-stroke;fill-rule:evenodd;stroke:none"
         d="M 0,0 5,-5 -12.5,0 5,5 Z"
         transform="scale(-0.5)"
         id="path6" /></marker></defs><g
     inkscape:label="Layer 1"
     inkscape:groupmode="layer"
     id="layer1"><g
       id="g3"><path
         style="fill:#ffffff;fill-opacity:0.4;stroke:none;stroke-width:1.05833;stroke-linecap:round;stroke-linejoin:round;stroke-dasharray:none"
         d="m 23.812501,38.364699 c 2.728518,-3.96875 4.547527,-3.968749 7.276046,10e-7 2.728519,3.96875 4.54753,3.96875 7.276047,0 2.728518,-3.96875 4.547527,-3.968749 7.276046,10e-7 2.728519,3.96875 4.54753,3.96875 7.276047,0 l 2.645813,-4e-6 10e-7,-27.781364 H 21.166667 l 1e-6,27.781364 z"
         id="path2"
         sodipodi:nodetypes="cc" /><path
         d="m 35.610697,29.449375 q -1.343587,0 -2.129068,-0.861273 v 3.589786 H 32.200055 V 21.85639 h 1.171331 l 0.06201,0.819932 q 0.785481,-0.957735 2.156628,-0.957735 1.412488,0 2.163518,1.047308 0.751031,1.047308 0.751031,2.756074 v 0.144694 q 0,1.632974 -0.757921,2.707843 -0.75103,1.074869 -2.135957,1.074869 z m -0.392741,-6.655919 q -1.157551,0 -1.736327,1.026637 v 3.569116 q 0.585666,1.012858 1.750107,1.012858 1.033528,0 1.508951,-0.813042 Q 37.223,26.775983 37.223,25.666663 v -0.144694 q 0,-1.10932 -0.482313,-1.915472 -0.475423,-0.813041 -1.522731,-0.813041 z m 7.379389,7.668776 q -0.661458,1.750107 -1.998154,1.85346 l -0.213596,0.0069 q -0.406521,0 -0.716579,-0.110243 l -0.0069,-1.033528 0.344509,0.02756 q 0.647678,0 1.012857,-0.268717 0.36518,-0.261827 0.599446,-0.950846 l 0.275608,-0.75792 -2.659612,-7.372499 h 1.391818 l 1.86724,5.581051 1.729437,-5.581051 h 1.364256 z"
         id="text7"
         style="font-size:14.1111px;line-height:1.5;font-family:Roboto;-inkscape-font-specification:'Roboto, Normal';text-align:center;letter-spacing:0px;text-anchor:middle;stroke-width:0.3;stroke-linecap:round"
         aria-label="py" /></g><g
       id="g10"
       transform="translate(-2.6458316)"><path
         style="fill:#ffffff;fill-opacity:1;stroke:#000000;stroke-width:1.32292;stroke-linecap:round;stroke-linejoin:round;stroke-dasharray:none"
         d="m 23.812499,10.583333 1e-6,26.458448"
         id="path8"
         sodipodi:nodetypes="cc" /><path
         style="fill:#ffffff;fill-opacity:1;stroke:#000000;stroke-width:1.32292;stroke-linecap:round;stroke-linejoin:round;stroke-dasharray:none"
         d="m 58.208333,10.583333 -1e-6,26.458448"
         id="path9"
         sodipodi:nodetypes="cc" /></g><path
       style="fill:#ffffff;fill-opacity:1;stroke:#000000;stroke-width:1.32292;stroke-linecap:round;stroke-linejoin:round;stroke-dasharray:none"
       d="M 2.645835,10.583333 H 76.729168"
       id="path7"
       sodipodi:nodetypes="cc" /><g
       id="g6"
       transform="translate(-7.038821,-3.6935949)"
       style="display:inline"><rect
         style="fill:#007f00;fill-opacity:1;stroke:#000000;stroke-width:0.529167;stroke-linejoin:round;stroke-dasharray:none"
         id="rect1"
         width="21.166666"
         height="15.875"
         x="17.622156"
         y="6.3394284"
         rx="3.96875"
         ry="3.96875" /><path
         d="M 21.290499,10.28062 V 9.1919707 h 7.751459 V 10.28062 h -3.224607 v 8.943461 H 24.508216 V 10.28062 Z m 13.733517,7.641216 q -0.36518,0.551215 -1.033528,0.999077 -0.668348,0.440972 -1.770777,0.440972 -1.557182,0 -2.494247,-1.012858 -0.930175,-1.012857 -0.930175,-2.590709 V 15.46893 q 0,-1.219563 0.461642,-2.073946 0.468533,-0.861273 1.212673,-1.309135 0.74414,-0.454753 1.584742,-0.454753 1.598523,0 2.328883,1.047309 0.73725,1.040418 0.73725,2.60449 v 0.571885 h -5.043616 q 0.02756,1.026638 0.606336,1.750107 0.585666,0.71658 1.605414,0.71658 0.675238,0 1.14377,-0.275608 0.468533,-0.275607 0.819933,-0.73725 z m -2.96967,-5.243431 q -0.75792,0 -1.281574,0.551215 -0.523654,0.551214 -0.654568,1.584742 h 3.727591 V 14.7179 q -0.04823,-0.74414 -0.434082,-1.391818 -0.37896,-0.647677 -1.357367,-0.647677 z"
         id="text3-7"
         style="font-size:14.1111px;line-height:1.35;font-family:Roboto;-inkscape-font-specification:'Roboto, Normal';text-align:center;letter-spacing:-0.529167px;text-anchor:middle;fill:#ffffff;stroke-width:0.246944;stroke-linejoin:round"
         aria-label="Te" /></g><g
       id="g7"
       transform="translate(-13.751268,-3.6935949)"><rect
         style="fill:#7f0000;fill-opacity:1;stroke:#000000;stroke-width:0.529167;stroke-linejoin:round;stroke-dasharray:none"
         id="rect1-0"
         width="26.458334"
         height="15.875"
         x="56.084602"
         y="6.3394284"
         rx="3.96875"
         ry="3.96875" /><path
         d="m 65.041851,17.370621 3.279728,-8.1786503 h 1.708766 V 19.224081 H 68.70743 v -3.913625 l 0.130913,-4.196123 -3.300399,8.109748 h -1.005967 l -3.293508,-8.123529 0.130913,4.209904 v 3.913625 H 60.046467 V 9.1919707 h 1.708766 z m 7.324267,1.85346 V 9.1919707 h 6.214948 V 10.28062 h -4.885142 v 3.424422 h 4.203013 v 1.08865 h -4.203013 v 4.430389 z"
         id="text4-3"
         style="font-size:14.1111px;line-height:1.35;font-family:Roboto;-inkscape-font-specification:'Roboto, Normal';font-variant-caps:small-caps;text-align:center;letter-spacing:0px;text-anchor:middle;fill:#ffffff;stroke-width:0.529167;stroke-linejoin:round"
         aria-label="MF" /></g><g
       id="g1"
       transform="translate(-2.6458316,7.9376133)"><path
         style="fill:none;fill-opacity:1;stroke:#000000;stroke-width:1.05833;stroke-linecap:round;stroke-linejoin:round;stroke-dasharray:none"
         d="m 26.458333,30.427086 c 2.728518,-3.96875 4.547527,-3.968749 7.276046,1e-6 2.728519,3.96875 4.54753,3.96875 7.276047,0 2.728518,-3.96875 4.547527,-3.968749 7.276046,1e-6 2.728519,3.96875 4.54753,3.96875 7.276047,0"
         id="path14"
         inkscape:path-effect="#path-effect18"
         inkscape:original-d="m 26.458333,30.427086 29.104167,2e-6"
         sodipodi:nodetypes="cc" /><path
         style="fill:#0022af;fill-opacity:1;stroke:#000000;stroke-width:1.05833;stroke-linecap:round;stroke-linejoin:round;stroke-dasharray:none;marker-end:url(#DartArrow)"
         d="M 62.441666,21.960417 55.033333,36.777083"
         id="path13"
         sodipodi:nodetypes="cc" /><path
         style="fill:#0022af;fill-opacity:1;stroke:#000000;stroke-width:1.05833;stroke-linecap:round;stroke-linejoin:round;stroke-dasharray:none;marker-end:url(#DartArrow)"
         d="M 19.579167,38.89375 26.9875,24.077083"
         id="path12"
         sodipodi:nodetypes="cc" /><circle
         style="fill:#d40000;fill-opacity:1;stroke:#000000;stroke-width:0.529167;stroke-linejoin:round;stroke-dasharray:none"
         id="path11"
         cx="23.8125"
         cy="30.427084"
         r="3.96875" /><circle
         style="fill:#0022af;fill-opacity:1;stroke:#000000;stroke-width:0.529167;stroke-linejoin:round;stroke-dasharray:none"
         id="circle11"
         cx="58.208332"
         cy="30.427084"
         r="3.96875" /></g></g></svg>
