<?xml version="1.0" encoding="UTF-8" standalone="no"?>
<!-- Created with Inkscape (http://www.inkscape.org/) -->

<svg
   width="300"
   height="190"
   viewBox="0 0 79.375002 50.270832"
   version="1.1"
   id="svg1"
   xml:space="preserve"
   inkscape:version="1.4.2 (1:1.4.2+202505120737+ebf0e940d0)"
   sodipodi:docname="logo.final.svg"
   inkscape:export-filename="logo.png"
   inkscape:export-xdpi="192"
   inkscape:export-ydpi="192"
   xmlns:inkscape="http://www.inkscape.org/namespaces/inkscape"
   xmlns:sodipodi="http://sodipodi.sourceforge.net/DTD/sodipodi-0.dtd"
   xmlns="http://www.w3.org/2000/svg"
   xmlns:svg="http://www.w3.org/2000/svg"><sodipodi:namedview
     id="namedview1"
     pagecolor="#ffffff"
     bordercolor="#000000"
     borderopacity="0.25"
     inkscape:showpageshadow="2"
     inkscape:pageopacity="0.0"
     inkscape:pagecheckerboard="0"
     inkscape:deskcolor="#d1d1d1"
     inkscape:document-units="px"
     inkscape:zoom="2.8652694"
     inkscape:cx="116.39394"
     inkscape:cy="108.89028"
     inkscape:window-width="1854"
     inkscape:window-height="1011"
     inkscape:window-x="0"
     inkscape:window-y="0"
     inkscape:window-maximized="1"
     inkscape:current-layer="layer1"
     showguides="false" /><defs
     id="defs1"><inkscape:path-effect
       effect="skeletal"
       id="path-effect3"
       is_visible="true"
       lpeversion="1"
       pattern="m 0.1322914,3.1088539 c 1.984375,-3.96875047 3.3072901,-3.96874947 5.2916661,3e-7 1.9843761,3.9687497 3.3072919,3.9687497 5.2916665,-3e-7"
       copytype="repeated_stretched"
       prop_scale="1"
       scale_y_rel="false"
       spacing="0"
       normal_offset="0"
       tang_offset="0"
       prop_units="false"
       vertical_pattern="false"
       hide_knot="false"
       fuse_tolerance="0" /><inkscape:path-effect
       effect="skeletal"
       id="path-effect18"
       is_visible="true"
       lpeversion="1"
       pattern="m 0.1322914,3.1088539 c 1.984375,-3.96875047 3.3072901,-3.96874947 5.2916661,3e-7 1.9843761,3.9687497 3.3072919,3.9687497 5.2916665,-3e-7"
       copytype="repeated_stretched"
       prop_scale="1"
       scale_y_rel="false"
       spacing="0"
       normal_offset="0"
       tang_offset="0"
       prop_units="false"
       vertical_pattern="false"
       hide_knot="false"
       fuse_tolerance="0" /><inkscape:path-effect
       effect="skeletal"
       id="path-effect17"
       is_visible="true"
       lpeversion="1"
       pattern="M 0,0 H 1"
       copytype="single_stretched"
       prop_scale="1"
       scale_y_rel="false"
       spacing="0"
       normal_offset="0"
       tang_offset="0"
       prop_units="false"
       vertical_pattern="false"
       hide_knot="false"
       fuse_tolerance="0" /><marker
       style="overflow:visible"
       id="DartArrow"
       refX="0"
       refY="0"
       orient="auto-start-reverse"
       inkscape:stockid="Dart arrow"
       markerWidth="0.69999999"
       markerHeight="0.69999999"
       viewBox="0 0 1 1"
       inkscape:isstock="true"
       inkscape:collect="always"
       preserveAspectRatio="xMidYMid"><path
         style="fill:context-stroke;fill-rule:evenodd;stroke:none"
         d="M 0,0 5,-5 -12.5,0 5,5 Z"
         transform="scale(-0.5)"
         id="path6" /></marker></defs><g
     inkscape:label="Layer 1"
     inkscape:groupmode="layer"
     id="layer1"><g
       id="g3"><path
         style="fill:#ffffff;fill-opacity:0.40000001;stroke:none;stroke-width:1.05833;stroke-linecap:round;stroke-linejoin:round;stroke-dasharray:none"
         d="m 26.458333,30.427086 c 2.728518,-3.96875 4.547527,-3.968749 7.276046,1e-6 2.728519,3.96875 4.54753,3.96875 7.276047,0 2.728518,-3.96875 4.547527,-3.968749 7.276046,1e-6 2.728519,3.96875 4.54753,3.96875 7.276047,0 l 2.645813,-4e-6 1e-6,-27.7813642 H 23.812499 l 1e-6,27.7813642 z"
         id="path2"
         sodipodi:nodetypes="cc"
         transform="translate(-2.6458316,7.9376132)" /><path
         d="m 34.110093,20.372899 q 1.975554,0 2.878664,0.776111 0.903111,0.776111 0.903111,2.187221 0,0.832554 -0.381,1.566332 -0.366889,0.719666 -1.255888,1.171221 -0.874888,0.451555 -2.384776,0.451555 h -1.15711 v 3.922886 H 31.443095 V 20.372899 Z m -0.112889,1.086555 h -1.28411 v 3.97933 h 1.015999 q 1.439332,0 2.144887,-0.465666 0.705555,-0.465666 0.705555,-1.580443 0,-0.973666 -0.620888,-1.453443 -0.620889,-0.479778 -1.961443,-0.479778 z m 11.288874,0.917222 -2.709331,4.938885 v 3.132664 h -1.255888 v -3.07622 l -2.709331,-4.995329 h 1.354665 l 1.989665,3.85233 2.003777,-3.85233 z"
         id="text5"
         style="font-size:14.1111px;line-height:1.35;font-family:Sans;-inkscape-font-specification:'Sans, Normal';font-variant-caps:small-caps;text-align:center;letter-spacing:0px;text-anchor:middle;stroke-width:0.529167;stroke-linejoin:round"
         aria-label="Py" /></g><g
       id="g10"
       transform="translate(-2.6458316)"><path
         style="fill:#ffffff;fill-opacity:1;stroke:#000000;stroke-width:1.32292;stroke-linecap:round;stroke-linejoin:round;stroke-dasharray:none"
         d="m 23.812499,10.583333 1e-6,26.458448"
         id="path8"
         sodipodi:nodetypes="cc" /><path
         style="fill:#ffffff;fill-opacity:1;stroke:#000000;stroke-width:1.32292;stroke-linecap:round;stroke-linejoin:round;stroke-dasharray:none"
         d="m 58.208333,10.583333 -1e-6,26.458448"
         id="path9"
         sodipodi:nodetypes="cc" /></g><path
       style="fill:#ffffff;fill-opacity:1;stroke:#000000;stroke-width:1.32292;stroke-linecap:round;stroke-linejoin:round;stroke-dasharray:none"
       d="M 2.645835,10.583333 H 76.729168"
       id="path7"
       sodipodi:nodetypes="cc" /><g
       id="g6"
       transform="translate(-7.038821,-3.6935949)"><rect
         style="fill:#007f00;fill-opacity:1;stroke:#000000;stroke-width:0.529167;stroke-linejoin:round;stroke-dasharray:none"
         id="rect1"
         width="21.166666"
         height="15.875"
         x="17.622156"
         y="6.3394284"
         rx="3.96875"
         ry="3.96875" /><path
         d="M 26.074727,19.314583 H 24.804728 V 10.354034 H 21.657953 V 9.2392573 h 7.549438 v 1.1147767 h -3.132664 z m 4.049876,-8.071549 h 4.628441 v 1.001888 h -3.400775 v 2.384776 h 3.189108 v 0.987777 h -3.189108 v 2.69522 h 3.400775 v 1.001888 h -4.628441 z"
         id="text3"
         style="font-size:14.1111px;line-height:1.35;font-family:Sans;-inkscape-font-specification:'Sans, Normal';font-variant-caps:small-caps;text-align:center;letter-spacing:0px;text-anchor:middle;fill:#ffffff;stroke-width:0.246944;stroke-linejoin:round"
         aria-label="Te" /></g><g
       id="g7"
       transform="translate(-13.751268,-3.6935949)"><rect
         style="fill:#7f0000;fill-opacity:1;stroke:#000000;stroke-width:0.529167;stroke-linejoin:round;stroke-dasharray:none"
         id="rect1-0"
         width="26.458334"
         height="15.875"
         x="56.084602"
         y="6.3394284"
         rx="3.96875"
         ry="3.96875" /><path
         d="m 64.544232,19.314583 -3.316108,-8.833549 h -0.05645 q 0.04233,0.437444 0.07056,1.185333 0.02822,0.733777 0.02822,1.538109 v 6.110107 H 60.099236 V 9.2392573 h 1.876776 l 3.104442,8.2549937 h 0.05644 L 68.297785,9.2392573 H 70.16045 V 19.314583 H 68.904562 V 13.11981 q 0,-0.733777 0.02822,-1.453443 0.04233,-0.719667 0.07056,-1.171222 h -0.05644 l -3.358441,8.819438 z m 9.623765,0 H 72.897998 V 9.2392573 h 5.630329 v 1.1147767 h -4.36033 v 3.570109 h 4.092219 v 1.114776 h -4.092219 z"
         id="text4"
         style="font-size:14.1111px;line-height:1.35;font-family:Sans;-inkscape-font-specification:'Sans, Normal';font-variant-caps:small-caps;text-align:center;letter-spacing:0px;text-anchor:middle;fill:#ffffff;stroke-width:0.529167;stroke-linejoin:round"
         aria-label="MF" /></g><g
       id="g1"
       transform="translate(-2.6458316,7.9376133)"><path
         style="fill:none;fill-opacity:1;stroke:#000000;stroke-width:1.05833;stroke-linecap:round;stroke-linejoin:round;stroke-dasharray:none"
         d="m 26.458333,30.427086 c 2.728518,-3.96875 4.547527,-3.968749 7.276046,1e-6 2.728519,3.96875 4.54753,3.96875 7.276047,0 2.728518,-3.96875 4.547527,-3.968749 7.276046,1e-6 2.728519,3.96875 4.54753,3.96875 7.276047,0"
         id="path14"
         inkscape:path-effect="#path-effect18"
         inkscape:original-d="m 26.458333,30.427086 29.104167,2e-6"
         sodipodi:nodetypes="cc" /><path
         style="fill:#0022af;fill-opacity:1;stroke:#000000;stroke-width:1.05833;stroke-linecap:round;stroke-linejoin:round;stroke-dasharray:none;marker-end:url(#DartArrow)"
         d="M 62.441666,21.960417 55.033333,36.777083"
         id="path13"
         sodipodi:nodetypes="cc" /><path
         style="fill:#0022af;fill-opacity:1;stroke:#000000;stroke-width:1.05833;stroke-linecap:round;stroke-linejoin:round;stroke-dasharray:none;marker-end:url(#DartArrow)"
         d="M 19.579167,38.89375 26.9875,24.077083"
         id="path12"
         sodipodi:nodetypes="cc" /><circle
         style="fill:#d40000;fill-opacity:1;stroke:#000000;stroke-width:0.529167;stroke-linejoin:round;stroke-dasharray:none"
         id="path11"
         cx="23.8125"
         cy="30.427084"
         r="3.96875" /><circle
         style="fill:#0022af;fill-opacity:1;stroke:#000000;stroke-width:0.529167;stroke-linejoin:round;stroke-dasharray:none"
         id="circle11"
         cx="58.208332"
         cy="30.427084"
         r="3.96875" /></g></g></svg>
